#include "notes.h"

int melody[] = {
  NOTE_G2,8,
  NOTE_G3,8,
  NOTE_D3,8,
  NOTE_G2,8,
  NOTE_G3,8,
  NOTE_G3,8,
  NOTE_G2,8,
  NOTE_G3,8,
  NOTE_D3,8,
  NOTE_AS2,8,
  NOTE_G2,8,
  NOTE_G3,16,
  NOTE_D3,16,
  NOTE_G3,8,
  NOTE_G2,8,
  NOTE_D3,8,
  NOTE_D4,8,
  NOTE_F4,8,
  NOTE_G3,8,
  NOTE_G2,8,
  NOTE_D4,8,
  NOTE_C4,8,
  NOTE_AS3,8,
  NOTE_A3,8,
  NOTE_D3,8,
  NOTE_G5,16,
  NOTE_G5,16,
  NOTE_G5,16,
  NOTE_G5,16,
  NOTE_G5,16,
  NOTE_G5,16,
  NOTE_G5,16,
  NOTE_G5,16,
  NOTE_G5,16,
  NOTE_G5,16,
  NOTE_D3,8,
  NOTE_G5,16,
  NOTE_G5,16,
  NOTE_G5,16,
  NOTE_G5,16,
  NOTE_G5,16,
  NOTE_G5,16,
  NOTE_G5,16,
  NOTE_G5,16,
  NOTE_G5,16,
  NOTE_G5,16,
  NOTE_G3,8,
  NOTE_G4,16,
  NOTE_G4,16,
  NOTE_G4,16,
  NOTE_G4,16,
  NOTE_G4,16,
  NOTE_G5,16,
  NOTE_G5,16,
  NOTE_G5,16,
  NOTE_G5,16,
  NOTE_G5,16,
  NOTE_AS2,8,
  NOTE_G4,16,
  NOTE_G4,16,
  NOTE_G4,16,
  NOTE_G4,16,
  NOTE_G4,16,
  NOTE_G5,16,
  NOTE_G2,16,
  NOTE_G2,16,
  NOTE_G2,16,
  NOTE_G5,16,
  NOTE_G2,16,
  NOTE_G2,16,
  NOTE_G2,16,
  NOTE_G5,16,
  NOTE_G2,16,
  NOTE_G5,16,
  NOTE_G2,16,
  NOTE_G5,16,
  NOTE_G2,16,
  NOTE_D3,8,
  NOTE_G2,16,
  NOTE_G4,16,
  NOTE_G2,16,
  NOTE_G2,16,
  NOTE_G2,16,
  NOTE_G4,16,
  NOTE_G2,16,
  NOTE_G2,16,
  NOTE_G2,16,
  NOTE_G4,16,
  NOTE_G2,16,
  NOTE_G4,16,
  NOTE_G2,16,
  NOTE_G4,16,
  NOTE_G2,16,
  NOTE_G2,16,
  NOTE_G2,16,
  NOTE_G5,16,
  NOTE_G2,16,
  NOTE_G2,16,
  NOTE_G2,16,
  NOTE_G5,16,
  NOTE_G2,16,
  NOTE_G2,16,
  NOTE_G2,16,
  NOTE_G5,16,
  NOTE_G2,16,
  NOTE_G5,16,
  NOTE_G2,16,
  NOTE_G5,16,
  NOTE_G2,16,
  NOTE_G3,8,
  NOTE_G2,16,
  NOTE_G4,16,
  NOTE_G2,16,
  NOTE_G2,16,
  NOTE_G2,16,
  NOTE_G4,16,
  NOTE_G2,16,
  NOTE_G2,16,
  NOTE_G2,16,
  NOTE_G4,16,
  NOTE_G2,16,
  NOTE_G4,16,
  NOTE_G2,16,
  NOTE_G4,16,
  NOTE_G2,16,
  NOTE_G2,16,
  NOTE_G2,16,
  NOTE_G5,16,
  NOTE_AS5,1,
  NOTE_G5,16,
  NOTE_A5,2,
  NOTE_G5,16,
  NOTE_G5,16,
  NOTE_A5,2,
  NOTE_G5,16,
  NOTE_AS5,2,
  NOTE_G5,16,
  NOTE_G5,16,
  NOTE_AS5,1,
  NOTE_D5,16,
  NOTE_G5,16,
  NOTE_A5,2,
  NOTE_G5,16,
  NOTE_G5,16,
  NOTE_A5,2,
  NOTE_G5,16,
  NOTE_G4,8,
  NOTE_FS4,8,
  NOTE_AS5,2,
  NOTE_G5,16,
  NOTE_G5,16,
  NOTE_AS5,1,
  NOTE_D5,16,
  NOTE_G5,16,
  NOTE_A5,2,
  NOTE_G5,16,
  NOTE_G5,16,
  NOTE_A5,2,
  NOTE_G5,16,
  NOTE_AS5,2,
  NOTE_G5,16,
  NOTE_G5,16,
  NOTE_AS5,1,
  NOTE_D5,16,
  NOTE_G5,16,
  NOTE_A5,2,
  NOTE_G5,16,
  NOTE_G5,16,
  NOTE_A5,2,
  NOTE_G5,16,
  NOTE_G4,8,
  NOTE_FS4,8,
  NOTE_AS5,2,
  NOTE_G5,16,
  NOTE_G5,16,
  NOTE_AS5,16,
  NOTE_D4,16,
  NOTE_AS5,16,
  NOTE_A5,16,
  NOTE_A4,2,
  NOTE_A5,16,
  NOTE_A5,16,
  NOTE_A5,16,
  NOTE_A5,16,
  NOTE_AS5,16,
  NOTE_AS4,2,
  NOTE_AS5,16,
  NOTE_AS5,16,
  NOTE_A5,16,
  NOTE_AS5,16,
  NOTE_D4,16,
  NOTE_AS5,16,
  NOTE_A5,16,
  NOTE_A4,2,
  NOTE_A5,16,
  NOTE_A5,16,
  NOTE_A5,16,
  NOTE_A5,16,
  NOTE_AS5,16,
  NOTE_FS4,8,
  NOTE_AS4,2,
  NOTE_AS5,16,
  NOTE_AS5,16,
  NOTE_A5,16,
  NOTE_AS5,16,
  NOTE_D4,16,
  NOTE_AS5,16,
  NOTE_A5,16,
  NOTE_A4,2,
  NOTE_A5,16,
  NOTE_A5,16,
  NOTE_A5,16,
  NOTE_A5,16,
  NOTE_AS5,16,
  NOTE_AS4,2,
  NOTE_AS5,16,
  NOTE_AS5,16,
  NOTE_A5,16,
  NOTE_G5,16,
  NOTE_G5,16,
  NOTE_G5,16,
  NOTE_G5,16,
  NOTE_G5,16,
  NOTE_G5,16,
  NOTE_G5,16,
  NOTE_G5,16,
  NOTE_D5,16,
  NOTE_AS5,16,
  NOTE_G5,16,
  NOTE_G5,16,
  NOTE_D5,16,
  NOTE_D5,16,
  NOTE_A5,16,
  NOTE_F5,16,
  NOTE_F5,16,
  NOTE_D5,16,
  NOTE_D5,16,
  NOTE_A5,16,
  NOTE_F5,16,
  NOTE_F5,16,
  NOTE_C5,16,
  NOTE_C5,16,
  NOTE_F1,16,
  NOTE_E5,16,
  NOTE_E5,16,
  NOTE_F5,16,
  NOTE_A2,16,
  NOTE_D5,16,
  NOTE_AS5,16,
  NOTE_G5,16,
  NOTE_G5,16,
  NOTE_D5,16,
  NOTE_D5,16,
  NOTE_A5,16,
  NOTE_F5,16,
  NOTE_F5,16,
  NOTE_D5,16,
  NOTE_D5,16,
  NOTE_A5,16,
  NOTE_F5,16,
  NOTE_F5,16,
  NOTE_C5,16,
  NOTE_C5,16,
  NOTE_F1,16,
  NOTE_E5,16,
  NOTE_E5,16,
  NOTE_F5,16,
  NOTE_A2,16,
  NOTE_D5,16,
  NOTE_AS5,16,
  NOTE_G5,16,
  NOTE_G5,16,
  NOTE_D5,16,
  NOTE_D5,16,
  NOTE_A5,16,
  NOTE_F5,16,
  NOTE_F5,16,
  NOTE_D5,16,
  NOTE_D5,16,
  NOTE_A5,16,
  NOTE_F5,16,
  NOTE_F5,16,
  NOTE_C5,16,
  NOTE_C5,16,
  NOTE_F1,16,
  NOTE_E5,16,
  NOTE_E5,16,
  NOTE_F5,16,
  NOTE_A2,16,
  NOTE_D5,16,
  NOTE_AS5,16,
  NOTE_G5,16,
  NOTE_G5,16,
  NOTE_D5,16,
  NOTE_D5,16,
  NOTE_A5,16,
  NOTE_F5,16,
  NOTE_F5,16,
  NOTE_D5,16,
  NOTE_D5,16,
  NOTE_A5,16,
  NOTE_F5,16,
  NOTE_F5,16,
  NOTE_C5,16,
  NOTE_C5,16,
  NOTE_F1,16,
  NOTE_E5,16,
  NOTE_E5,16,
  NOTE_F5,16,
  NOTE_A2,16,
  NOTE_D5,16,
  NOTE_AS5,16,
  NOTE_G5,16,
  NOTE_G5,16,
  NOTE_D5,16,
  NOTE_D5,16,
  NOTE_A5,16,
  NOTE_F5,16,
  NOTE_F5,16,
  NOTE_D5,16,
  NOTE_D5,16,
  NOTE_A5,16,
  NOTE_F5,16,
  NOTE_F5,16,
  NOTE_C5,16,
  NOTE_C5,16,
  NOTE_E4,16,
  NOTE_E5,16,
  NOTE_E5,16,
  NOTE_F5,16,
  NOTE_A2,16,
  NOTE_D5,16,
  NOTE_AS5,16,
  NOTE_G5,16,
  NOTE_G5,16,
  NOTE_D5,16,
  NOTE_D5,16,
  NOTE_A5,16,
  NOTE_F5,16,
  NOTE_F5,16,
  NOTE_D5,16,
  NOTE_D5,16,
  NOTE_A5,16,
  NOTE_F5,16,
  NOTE_F5,16,
  NOTE_C5,16,
  NOTE_C5,16,
  NOTE_E4,16,
  NOTE_E5,16,
  NOTE_E5,16,
  NOTE_F5,16,
  NOTE_A2,16,
  NOTE_D5,16,
  NOTE_AS5,16,
  NOTE_G5,16,
  NOTE_G5,16,
  NOTE_D5,16,
  NOTE_D5,16,
  NOTE_A5,16,
  NOTE_F5,16,
  NOTE_F5,16,
  NOTE_D5,16,
  NOTE_D5,16,
  NOTE_A5,16,
  NOTE_F5,16,
  NOTE_F5,16,
  NOTE_C5,16,
  NOTE_C5,16,
  NOTE_E4,16,
  NOTE_E5,16,
  NOTE_E5,16,
  NOTE_F5,16,
  NOTE_A2,16,
  NOTE_D5,16,
  NOTE_AS5,16,
  NOTE_G5,16,
  NOTE_G5,16,
  NOTE_D5,16,
  NOTE_D5,16,
  NOTE_A5,16,
  NOTE_F5,16,
  NOTE_F5,16,
  NOTE_D5,16,
  NOTE_D5,16,
  NOTE_A5,16,
  NOTE_F5,16,
  NOTE_F5,16,
  NOTE_C5,16,
  NOTE_C5,16,
  NOTE_E4,16,
  NOTE_E5,16,
  NOTE_E5,16,
  NOTE_F5,16,
  NOTE_A2,16,
  NOTE_AS3,1,
  NOTE_AS5,1,
  NOTE_A5,2,
  NOTE_F5,4,
  NOTE_A5,2,
  NOTE_AS5,2,
  NOTE_AS5,1,
  NOTE_D5,16,
  NOTE_A5,2,
  NOTE_F5,4,
  NOTE_A5,2,
  NOTE_G4,8,
  NOTE_FS4,8,
  NOTE_AS5,2,
  NOTE_AS5,1,
  NOTE_D5,16,
  NOTE_A5,2,
  NOTE_F5,4,
  NOTE_A5,2,
  NOTE_AS5,2,
  NOTE_AS5,1,
  NOTE_D5,16,
  NOTE_A5,2,
  NOTE_F5,4,
  NOTE_A5,2,
  NOTE_G4,8,
  NOTE_FS4,8,
  NOTE_AS5,2,
  NOTE_AS5,16,
  NOTE_D4,16,
  NOTE_AS5,16,
  NOTE_A5,16,
  NOTE_A4,2,
  NOTE_A5,16,
  NOTE_A5,16,
  NOTE_A5,16,
  NOTE_A5,16,
  NOTE_AS5,16,
  NOTE_AS4,2,
  NOTE_AS5,16,
  NOTE_AS5,16,
  NOTE_A5,16,
  NOTE_AS5,16,
  NOTE_D4,16,
  NOTE_AS5,16,
  NOTE_A5,16,
  NOTE_A4,2,
  NOTE_A5,16,
  NOTE_A5,16,
  NOTE_A5,16,
  NOTE_A5,16,
  NOTE_AS5,16,
  NOTE_FS4,8,
  NOTE_AS4,2,
  NOTE_AS5,16,
  NOTE_AS5,16,
  NOTE_A5,16,
  NOTE_AS5,16,
  NOTE_D4,16,
  NOTE_AS5,16,
  NOTE_A5,16,
  NOTE_A4,2,
  NOTE_A5,16,
  NOTE_A5,16,
  NOTE_A5,16,
  NOTE_A5,16,
  NOTE_AS5,16,
  NOTE_AS4,2,
  NOTE_AS5,16,
  NOTE_AS5,16,
  NOTE_A5,16,
  NOTE_G5,16,
  NOTE_G5,16,
  NOTE_G5,16,
  NOTE_G5,16,
  NOTE_G5,16,
  NOTE_G5,16,
  NOTE_G5,16,
  NOTE_G5,16,
  NOTE_D5,16,
  NOTE_AS5,16,
  NOTE_G5,16,
  NOTE_G5,16,
  NOTE_D5,16,
  NOTE_D5,16,
  NOTE_A5,16,
  NOTE_F5,16,
  NOTE_F5,16,
  NOTE_D5,16,
  NOTE_D5,16,
  NOTE_A5,16,
  NOTE_F5,16,
  NOTE_F5,16,
  NOTE_C5,16,
  NOTE_C5,16,
  NOTE_E4,16,
  NOTE_E5,16,
  NOTE_E5,16,
  NOTE_F5,16,
  NOTE_A2,16,
  NOTE_D5,16,
  NOTE_AS5,16,
  NOTE_G5,16,
  NOTE_G5,16,
  NOTE_D5,16,
  NOTE_D5,16,
  NOTE_A5,16,
  NOTE_F5,16,
  NOTE_F5,16,
  NOTE_D5,16,
  NOTE_D5,16,
  NOTE_A5,16,
  NOTE_F5,16,
  NOTE_F5,16,
  NOTE_C5,16,
  NOTE_C5,16,
  NOTE_E4,16,
  NOTE_E5,16,
  NOTE_E5,16,
  NOTE_F5,16,
  NOTE_A2,16,
  NOTE_D5,16,
  NOTE_AS5,16,
  NOTE_G5,16,
  NOTE_G5,16,
  NOTE_D5,16,
  NOTE_D5,16,
  NOTE_A5,16,
  NOTE_F5,16,
  NOTE_F5,16,
  NOTE_D5,16,
  NOTE_D5,16,
  NOTE_A5,16,
  NOTE_F5,16,
  NOTE_F5,16,
  NOTE_C5,16,
  NOTE_C5,16,
  NOTE_E4,16,
  NOTE_E5,16,
  NOTE_E5,16,
  NOTE_F5,16,
  NOTE_A2,16,
  NOTE_D5,16,
  NOTE_AS5,16,
  NOTE_G5,16,
  NOTE_G5,16,
  NOTE_D5,16,
  NOTE_D5,16,
  NOTE_A5,16,
  NOTE_F5,16,
  NOTE_F5,16,
  NOTE_D5,16,
  NOTE_D5,16,
  NOTE_A5,16,
  NOTE_F5,16,
  NOTE_F5,16,
  NOTE_C5,16,
  NOTE_C5,16,
  NOTE_E4,16,
  NOTE_E5,16,
  NOTE_E5,16,
  NOTE_F5,16,
  NOTE_A2,16,
  NOTE_D6,16,
  NOTE_AS6,16,
  NOTE_G6,16,
  NOTE_G6,16,
  NOTE_D6,16,
  NOTE_D6,16,
  NOTE_A6,16,
  NOTE_F6,16,
  NOTE_F6,16,
  NOTE_D6,16,
  NOTE_D6,16,
  NOTE_A6,16,
  NOTE_F6,16,
  NOTE_F6,16,
  NOTE_C6,16,
  NOTE_C6,16,
  NOTE_E4,16,
  NOTE_E6,16,
  NOTE_E6,16,
  NOTE_F6,16,
  NOTE_A2,16,
  NOTE_D6,16,
  NOTE_AS6,16,
  NOTE_G6,16,
  NOTE_G6,16,
  NOTE_D6,16,
  NOTE_D6,16,
  NOTE_A6,16,
  NOTE_F6,16,
  NOTE_F6,16,
  NOTE_D6,16,
  NOTE_D6,16,
  NOTE_A6,16,
  NOTE_F6,16,
  NOTE_F6,16,
  NOTE_C6,16,
  NOTE_C6,16,
  NOTE_E4,16,
  NOTE_E6,16,
  NOTE_E6,16,
  NOTE_F6,16,
  NOTE_A2,16,
  NOTE_D6,16,
  NOTE_AS6,16,
  NOTE_G6,16,
  NOTE_G6,16,
  NOTE_D6,16,
  NOTE_D6,16,
  NOTE_A6,16,
  NOTE_F6,16,
  NOTE_F6,16,
  NOTE_D6,16,
  NOTE_D6,16,
  NOTE_A6,16,
  NOTE_F6,16,
  NOTE_F6,16,
  NOTE_C6,16,
  NOTE_C6,16,
  NOTE_E4,16,
  NOTE_E6,16,
  NOTE_E6,16,
  NOTE_F6,16,
  NOTE_A2,16,
  NOTE_D6,16,
  NOTE_AS6,16,
  NOTE_G6,16,
  NOTE_G6,16,
  NOTE_D6,16,
  NOTE_D6,16,
  NOTE_A6,16,
  NOTE_F6,16,
  NOTE_F6,16,
  NOTE_D6,16,
  NOTE_D6,16,
  NOTE_A6,16,
  NOTE_F6,16,
  NOTE_F6,16,
  NOTE_C6,16,
  NOTE_C6,16,
  NOTE_E4,16,
  NOTE_E6,16,
  NOTE_E6,16,
  NOTE_F6,16,
  NOTE_A2,16,
  NOTE_F6,16,
  NOTE_D5,16,
  NOTE_D6,16,
  NOTE_C6,16,
  NOTE_A5,16,
  NOTE_A5,2,
  NOTE_F5,8,
  NOTE_G4,8,
  NOTE_FS4,8,
  NOTE_AS5,2,
  NOTE_A5,8,
  NOTE_F5,8,
  NOTE_F6,16,
  NOTE_D5,16,
  NOTE_D6,16,
  NOTE_C6,16,
  NOTE_A5,16,
  NOTE_A5,2,
  NOTE_F5,8,
  NOTE_AS5,2,
  NOTE_A5,8,
  NOTE_F5,8,
  NOTE_F6,16,
  NOTE_D5,16,
  NOTE_D6,16,
  NOTE_C6,16,
  NOTE_A5,16,
  NOTE_A5,2,
  NOTE_F5,8,
  NOTE_G4,8,
  NOTE_FS4,8,
  NOTE_AS5,2,
  NOTE_A5,8,
  NOTE_F5,8,
  NOTE_F6,16,
  NOTE_D5,16,
  NOTE_D6,16,
  NOTE_C6,16,
  NOTE_A5,16,
  NOTE_A5,2,
  NOTE_F5,8,
  NOTE_AS5,2,
  NOTE_A5,8,
  NOTE_F5,8,
  NOTE_AS5,1,
  NOTE_F5,8,
  NOTE_A5,8,
  NOTE_D5,8,
  NOTE_F5,8,
  NOTE_A5,8,
  NOTE_D5,8,
  NOTE_F5,8,
  NOTE_A5,8,
  NOTE_D5,8,
  NOTE_F5,8,
  NOTE_A5,8,
  NOTE_D5,8,
};
